<?xml version="1.0" encoding="UTF-8" standalone="no"?>
<!DOCTYPE svg PUBLIC "-//W3C//DTD SVG 1.1//EN" "http://www.w3.org/Graphics/SVG/1.1/DTD/svg11.dtd">
<svg width="100%" height="100%" viewBox="0 0 800 200" version="1.1" xmlns="http://www.w3.org/2000/svg" xmlns:xlink="http://www.w3.org/1999/xlink" xml:space="preserve" xmlns:serif="http://www.serif.com/" style="fill-rule:evenodd;clip-rule:evenodd;stroke-linejoin:round;stroke-miterlimit:2;">
    <g transform="matrix(0.571645,0,0,0.571645,5.88187,5.35162)">
        <path d="M103.85,139.14C96.99,122.17 93.62,104.7 92.62,86.52C91.67,69.18 95.93,49.56 108.43,37.18C111.61,34.03 114.97,30.64 118.55,28.34C125.723,23.72 133.6,20.237 142.18,17.89C144.073,17.377 146.877,16.703 150.59,15.87C154.03,15.097 158.963,14.387 165.39,13.74C184.477,11.813 203.497,12.12 222.45,14.66C222.636,14.687 222.82,14.73 223,14.79C224.06,15.15 225.163,15.373 226.31,15.46C231.377,15.84 239.147,18.033 249.62,22.04C257.02,24.873 263.42,29.087 268.82,34.68C268.886,34.746 268.923,34.835 268.923,34.928C268.923,35.092 268.809,35.234 268.65,35.27C261.29,36.937 253.99,39.227 246.75,42.14C246.432,42.267 246.075,42.253 245.77,42.1C238.81,38.647 232.107,36.317 225.66,35.11C223.96,34.79 220.867,34.307 216.38,33.66C212.227,33.06 209.12,32.74 207.06,32.7C201.18,32.58 195.95,31.77 190.31,31.86C181.077,32.013 173.32,32.43 167.04,33.11C161.287,33.73 155.123,34.87 148.55,36.53C133.52,40.31 120.19,49.16 115.39,64.2C114.81,66.02 114.01,68.36 113.73,69.97C112.49,77.083 112.203,84.513 112.87,92.26C113.863,103.733 116.4,115.017 120.48,126.11C120.61,126.473 120.493,126.881 120.19,127.12L104.6,139.34C104.583,139.353 104.565,139.365 104.546,139.376C104.313,139.511 104.013,139.434 103.881,139.206C103.869,139.185 103.859,139.163 103.85,139.14Z" style="fill:rgb(20,155,171);fill-rule:nonzero;"/>
    </g>
    <g transform="matrix(0.571645,0,0,0.571645,5.88187,5.35162)">
        <path d="M91.62,44.14C91.62,44.193 91.623,44.297 91.63,44.45C91.637,44.583 91.62,44.69 91.58,44.77C90.287,47.25 89.33,49.33 88.71,51.01C88.183,52.43 87.243,55.517 85.89,60.27C85.8,60.579 85.521,60.797 85.2,60.81C84.6,60.837 82.953,60.873 80.26,60.92C72.753,61.047 65.33,62.56 57.99,65.46C49.783,68.707 43.267,73.937 38.44,81.15C37.413,82.683 36.327,85.253 35.18,88.86C34.06,92.38 33.627,96.76 33.88,102C34.22,109.113 36.047,116.583 39.36,124.41C44.52,136.597 50.9,147.553 58.5,157.28C61.9,161.633 64.607,165.133 66.62,167.78C66.801,168.014 66.77,168.35 66.55,168.54L52.77,180.64C52.383,180.98 51.797,180.98 51.41,180.64C51.023,180.3 50.363,179.537 49.43,178.35C35.14,160.13 23.12,141.68 17,120.77C13.44,108.59 12.54,97.12 15.54,84.54C15.6,84.32 15.88,84.11 15.93,83.92C20.2,67.41 31.61,55.54 47.4,48.43C61.18,42.223 76.033,39.963 91.96,41.65C92.336,41.692 92.638,41.986 92.69,42.36C92.75,42.847 92.53,43.217 92.03,43.47C91.783,43.601 91.626,43.858 91.62,44.14Z" style="fill:rgb(15,119,178);fill-rule:nonzero;"/>
    </g>
    <g transform="matrix(0.571645,0,0,0.571645,5.88187,5.35162)">
        <path d="M270.14,237.58C270.106,237.584 270.071,237.586 270.036,237.586C269.542,237.586 269.136,237.18 269.136,236.686C269.136,236.617 269.144,236.548 269.16,236.48C271.3,227.153 274.803,218.557 279.67,210.69C283.37,204.71 289.31,197.26 295.3,190.22C305.5,178.227 312.533,169.703 316.4,164.65C321.413,158.103 326.93,149.973 332.95,140.26C340.123,128.687 344.527,116.437 346.16,103.51C348.23,87.18 340.09,74.09 325.49,66.91C319.937,64.183 313.857,62.437 307.25,61.67C301.45,61.003 295.2,60.913 288.5,61.4C282.833,61.813 276.683,62.99 270.05,64.93C250.42,70.66 232.56,80.05 215.38,91.04C215.086,91.232 214.702,91.22 214.42,91.01L198.41,79.36C198.395,79.349 198.38,79.337 198.367,79.323C198.236,79.19 198.241,78.97 198.378,78.835C198.391,78.822 198.405,78.811 198.42,78.8C210.6,70.127 223.637,62.53 237.53,56.01C249.003,50.63 260.703,46.597 272.63,43.91C277.143,42.897 282.597,42.113 288.99,41.56C301.543,40.48 313.147,41.667 323.8,45.12C335.153,48.793 344.137,53.97 350.75,60.65C363.2,73.22 368.24,90.95 365.53,108.81C363.703,120.89 359.837,132.373 353.93,143.26C346.29,157.353 337.323,170.61 327.03,183.03C312.35,200.75 304.47,210.287 303.39,211.64C297.777,218.64 293.343,226.247 290.09,234.46C289.886,234.972 289.417,235.333 288.87,235.4L270.14,237.58Z" style="fill:rgb(17,169,170);fill-rule:nonzero;"/>
    </g>
    <g transform="matrix(0.571645,0,0,0.571645,5.88187,5.35162)">
        <path d="M123.53,69.52C123.336,69.508 123.182,69.345 123.182,69.151C123.182,69.058 123.217,68.968 123.28,68.9C123.907,68.213 124.257,67.477 124.33,66.69C124.35,66.445 124.411,66.205 124.51,65.98C126.71,61.147 129.683,56.997 133.43,53.53C133.662,53.317 133.96,53.193 134.27,53.18C135.463,53.12 136.593,53.327 137.66,53.8C150.527,59.487 162.127,65.733 172.46,72.54C179.86,77.4 192.21,86.1 202.09,93.66C219.11,106.687 234.27,118.567 247.57,129.3C248.187,129.798 248.407,130.65 248.11,131.39L241.2,148.59C241.094,148.849 240.841,149.019 240.561,149.019C240.356,149.019 240.161,148.928 240.03,148.77L239.17,147.74C239.163,147.727 239.153,147.717 239.14,147.71C218.77,131.89 199.01,116.04 178.65,100.83C163.137,89.25 146.823,79.653 129.71,72.04C125.997,70.393 123.937,69.553 123.53,69.52Z" style="fill:rgb(15,119,178);fill-rule:nonzero;"/>
    </g>
    <g transform="matrix(0.571645,0,0,0.571645,5.88187,5.35162)">
        <path d="M286.6,71.92L287.23,75.01C287.243,75.056 287.25,75.104 287.25,75.15C288.057,86.383 287.017,98.693 284.13,112.08C282.643,118.953 281.517,123.58 280.75,125.96C277.517,135.98 274.08,145.393 270.44,154.2C267.07,162.34 262.92,169.23 258.14,178.4C255.673,183.147 252.49,188.673 248.59,194.98C241.03,207.2 234.49,218.65 225.77,229.01C223.623,231.557 221.08,233.25 218.14,234.09C217.719,234.208 217.278,234.232 216.85,234.16C210.463,233.08 204.353,231.003 198.52,227.93C198.407,227.869 198.337,227.751 198.337,227.622C198.337,227.498 198.403,227.383 198.51,227.32C199.79,226.587 200.877,225.82 201.77,225.02C207.92,219.51 213.05,213.23 217.62,206.32C227.933,190.707 236.847,175.893 244.36,161.88C251.58,148.413 257.487,133.807 262.08,118.06C263.393,113.547 264.473,108.91 265.32,104.15C267.06,94.32 268.01,86.06 267.4,76.33C267.381,76.014 267.567,75.719 267.86,75.6C273.38,73.3 279.343,71.86 285.75,71.28C286.151,71.243 286.52,71.521 286.6,71.92Z" style="fill:rgb(20,155,171);fill-rule:nonzero;"/>
    </g>
    <g transform="matrix(0.571645,0,0,0.571645,5.88187,5.35162)">
        <path d="M166.33,103.68L181.78,114.93C181.859,114.988 181.905,115.081 181.905,115.179C181.905,115.272 181.863,115.361 181.79,115.42C167.657,126.707 159.293,133.363 156.7,135.39C149.51,141 144.14,145.77 136.98,150.94C133.667,153.333 130.433,155.8 127.28,158.34C115.693,167.673 105.073,175.88 95.42,182.96C89.347,187.413 84.227,191.46 80.06,195.1C69.99,203.9 60.48,212.78 55.99,224.72C55.89,224.985 55.827,225.258 55.8,225.53C55.56,227.937 56.1,230.033 57.42,231.82C61.72,237.65 73.15,241.34 80.01,242.6C80.24,242.639 80.453,242.732 80.63,242.87C81.023,243.17 81.487,243.3 82.02,243.26C82.612,243.228 83.139,243.659 83.23,244.25C84.05,249.63 84.81,255.72 85.51,262.52C85.518,262.598 85.52,262.677 85.513,262.755C85.458,263.444 84.841,263.965 84.146,263.909C84.07,263.903 83.994,263.89 83.92,263.87C81.227,263.137 79.113,262.633 77.58,262.36C72.887,261.527 67.137,259.787 60.33,257.14C50.9,253.49 40.84,246.52 36.96,236.58C33.18,226.93 36.65,215.56 42.4,207.13C48.893,197.617 57.057,188.7 66.89,180.38C72.503,175.62 85.02,165.933 104.44,151.32C110.8,146.533 116.29,142.257 120.91,138.49C128.75,132.1 135.62,127.17 142.82,121.27C150.993,114.57 158.527,108.707 165.42,103.68C165.688,103.484 166.057,103.484 166.33,103.68Z" style="fill:rgb(19,136,174);fill-rule:nonzero;"/>
    </g>
    <g transform="matrix(0.571645,0,0,0.571645,5.88187,5.35162)">
        <path d="M299.93,170.06L287.65,184.66C287.533,184.798 287.328,184.825 287.18,184.72L271.83,173.56C271.696,173.462 271.65,173.281 271.72,173.13L280.04,155.62C280.099,155.5 280.221,155.423 280.355,155.423C280.428,155.423 280.5,155.447 280.56,155.49L299.87,169.55C299.96,169.616 300.014,169.721 300.014,169.833C300.014,169.916 299.984,169.997 299.93,170.06Z" style="fill:rgb(15,119,178);fill-rule:nonzero;"/>
    </g>
    <g transform="matrix(0.571645,0,0,0.571645,5.88187,5.35162)">
        <path d="M329.23,196.51C334.137,201.55 338.12,207.307 341.18,213.78C342.973,217.573 344.1,221.29 344.56,224.93C345.02,228.597 344.557,232.243 343.17,235.87C342.083,238.71 340.53,241.507 338.51,244.26C337.063,246.233 334.707,248.37 331.44,250.67C325.727,254.697 319.363,257.77 312.35,259.89C304.35,262.303 296.15,263.957 287.75,264.85C286.483,264.983 285.58,265.083 285.04,265.15C264.567,267.597 244.063,267.61 223.53,265.19C217.857,264.523 211.05,263.09 203.11,260.89C194.617,258.537 186.483,255.017 178.71,250.33C163.26,241.01 151.57,227.32 141.2,210.81C133.78,199.003 127.097,187.7 121.15,176.9C120.828,176.322 120.982,175.584 121.51,175.17L136.15,163.69C136.158,163.684 136.167,163.678 136.176,163.672C136.369,163.547 136.629,163.599 136.751,163.788C136.758,163.798 136.764,163.809 136.77,163.82C144.33,177.893 152.83,192.113 162.27,206.48C172.05,221.37 185.47,234.33 202.71,240.05C209.06,242.15 216.55,244.05 223.61,244.94C236.737,246.607 248.95,247.303 260.25,247.03C265.203,246.91 274.12,246.313 287,245.24C288.013,245.16 292.177,244.447 299.49,243.1C299.563,243.087 299.634,243.067 299.7,243.04C300.26,242.8 300.56,242.673 300.6,242.66C305.54,241.573 310.64,239.743 315.9,237.17C319.773,235.277 322.43,232.973 323.87,230.26C324.029,229.962 324.14,229.645 324.2,229.32C324.773,226.327 324.103,223.193 322.19,219.92C320.143,216.42 318.23,213.61 316.45,211.49C316.243,211.242 316.243,210.878 316.45,210.63L328.28,196.55C328.286,196.543 328.292,196.536 328.299,196.529C328.542,196.268 328.953,196.251 329.21,196.49C329.217,196.497 329.223,196.503 329.23,196.51Z" style="fill:rgb(18,127,176);fill-rule:nonzero;"/>
    </g>
    <g transform="matrix(0.571645,0,0,0.571645,5.88187,5.35162)">
        <path d="M90.59,198.56C90.769,198.401 91.001,198.313 91.24,198.313C91.546,198.313 91.835,198.457 92.02,198.7C99.827,208.96 105.57,219.31 109.25,229.75C110.27,232.643 111.06,235.667 111.62,238.82C113.153,247.393 114.083,254.21 114.41,259.27C114.863,266.363 115.447,272.633 116.16,278.08C117.3,286.75 119.17,295.65 126.09,300.99C127.47,302.057 129.077,302.75 130.91,303.07C132.257,303.303 133.973,303.14 136.06,302.58C140.26,301.46 144.153,299.507 147.74,296.72C159.87,287.27 169.89,274.97 178.61,262.44C178.816,262.143 179.204,262.026 179.54,262.16L198.31,269.71C198.323,269.714 198.332,269.725 198.332,269.739C198.332,269.743 198.331,269.746 198.33,269.75C192.15,278.5 186.48,285.45 179.74,293.33C170.43,304.22 160.08,313.31 147.98,319.44C143.847,321.533 139.18,322.677 133.98,322.87C108.82,323.82 98.77,300.55 96.15,279.74C96.03,278.793 95.927,278.147 95.84,277.8C95.71,277.286 95.617,276.887 95.61,276.81C95.07,269.843 94.607,263.573 94.22,258C94.04,255.43 93.45,252.41 93.04,249.03C91.347,235.043 86.06,222.657 77.18,211.87C76.777,211.375 76.839,210.638 77.32,210.21L90.59,198.56Z" style="fill:rgb(18,127,176);fill-rule:nonzero;"/>
    </g>
    <g transform="matrix(0.571645,0,0,0.571645,5.88187,5.35162)">
        <path d="M124.58,266.39L122.41,247.79C122.407,247.767 122.406,247.743 122.406,247.72C122.406,247.399 122.669,247.133 122.99,247.13C135.603,246.923 143.513,246.583 146.72,246.11C151.52,245.397 154.523,245.077 155.73,245.15C155.945,245.169 156.154,245.253 156.33,245.39L170.84,256.91C171.123,257.139 171.176,257.554 170.96,257.84L167.09,263.17C166.96,263.345 166.781,263.472 166.58,263.53C162.85,264.65 159.57,264.61 155.66,265.19C145.58,266.663 135.343,267.18 124.95,266.74C124.763,266.736 124.604,266.586 124.58,266.39Z" style="fill:rgb(15,119,178);fill-rule:nonzero;"/>
    </g>
    <g transform="matrix(0.571645,0,0,0.571645,5.88187,5.35162)">
        <path d="M208.77,272.65C212.71,276.79 218.82,285 224.24,289.85C229.41,294.47 235.42,299.41 242.13,302.09C246.023,303.643 249.667,303.533 253.06,301.76C260.9,297.66 262.82,284.57 264.22,276.84C264.28,276.524 264.547,276.29 264.86,276.28C267.52,276.18 273.093,275.8 281.58,275.14C281.887,275.12 282.32,274.98 282.88,274.72C283.287,274.527 283.68,274.7 284.06,275.24C284.176,275.408 284.226,275.611 284.2,275.81C283.39,282.79 282.68,288.41 280.73,294.29C276.69,306.51 270.64,316.91 257.94,321.44C248.73,324.72 237.94,322.55 229.25,317.76C216.63,310.8 205.81,299.91 196.85,288.92C196.575,288.587 196.563,288.106 196.82,287.76L207.77,272.72C207.892,272.549 208.089,272.448 208.299,272.448C208.477,272.448 208.647,272.521 208.77,272.65Z" style="fill:rgb(20,155,171);fill-rule:nonzero;"/>
    </g>
    <g transform="matrix(1,0,0,1,-11,20.3032)">
        <g transform="matrix(120,0,0,120,242,124.126)">
            <path d="M0.194,-0.268L0.194,-0L0.097,-0L0.097,-0.717L0.309,-0.717C0.354,-0.717 0.393,-0.711 0.427,-0.701C0.46,-0.69 0.488,-0.675 0.51,-0.656C0.532,-0.637 0.548,-0.613 0.559,-0.586C0.57,-0.559 0.576,-0.528 0.576,-0.495C0.576,-0.461 0.57,-0.431 0.558,-0.403C0.546,-0.375 0.529,-0.352 0.507,-0.332C0.484,-0.312 0.456,-0.296 0.423,-0.285C0.39,-0.274 0.352,-0.268 0.309,-0.268L0.194,-0.268ZM0.194,-0.345L0.309,-0.345C0.336,-0.345 0.361,-0.349 0.382,-0.356C0.403,-0.363 0.421,-0.374 0.435,-0.387C0.449,-0.4 0.46,-0.416 0.468,-0.434C0.475,-0.452 0.479,-0.472 0.479,-0.495C0.479,-0.54 0.464,-0.576 0.436,-0.602C0.408,-0.627 0.366,-0.64 0.309,-0.64L0.194,-0.64L0.194,-0.345Z" style="fill:rgb(15,119,178);fill-rule:nonzero;"/>
        </g>
        <g transform="matrix(120,0,0,120,320.96,124.126)">
            <path d="M0.184,-0.082L0.494,-0.082L0.494,-0L0.087,-0L0.087,-0.717L0.184,-0.717L0.184,-0.082Z" style="fill:rgb(15,119,178);fill-rule:nonzero;"/>
        </g>
        <g transform="matrix(120,0,0,120,388.28,124.126)">
            <path d="M0.529,-0.717L0.529,-0.638L0.185,-0.638L0.185,-0.4L0.463,-0.4L0.463,-0.324L0.185,-0.324L0.185,-0.079L0.529,-0.079L0.529,-0L0.087,-0L0.087,-0.717L0.529,-0.717Z" style="fill:rgb(15,119,178);fill-rule:nonzero;"/>
        </g>
        <g transform="matrix(120,0,0,120,463.64,124.126)">
            <path d="M0.254,-0.368L0.017,-0.717L0.114,-0.717C0.121,-0.717 0.126,-0.715 0.129,-0.713C0.132,-0.711 0.135,-0.707 0.138,-0.703L0.325,-0.416C0.327,-0.423 0.331,-0.431 0.336,-0.439L0.512,-0.701C0.515,-0.706 0.518,-0.709 0.522,-0.712C0.525,-0.715 0.53,-0.717 0.535,-0.717L0.627,-0.717L0.39,-0.373L0.635,-0L0.539,-0C0.532,-0 0.526,-0.002 0.522,-0.006C0.518,-0.01 0.514,-0.014 0.512,-0.019L0.32,-0.319C0.317,-0.312 0.314,-0.305 0.311,-0.299L0.124,-0.019C0.121,-0.014 0.117,-0.01 0.113,-0.006C0.109,-0.002 0.104,-0 0.097,-0L0.007,-0L0.254,-0.368Z" style="fill:rgb(15,119,178);fill-rule:nonzero;"/>
        </g>
        <g transform="matrix(120,0,0,120,546.44,124.126)">
            <path d="M0.677,-0L0.602,-0C0.593,-0 0.586,-0.002 0.581,-0.007C0.575,-0.011 0.571,-0.016 0.569,-0.023L0.502,-0.196L0.18,-0.196L0.113,-0.023C0.111,-0.017 0.107,-0.012 0.101,-0.007C0.095,-0.002 0.088,-0 0.08,-0L0.005,-0L0.292,-0.717L0.39,-0.717L0.677,-0ZM0.207,-0.266L0.475,-0.266L0.362,-0.558C0.355,-0.576 0.347,-0.598 0.341,-0.625C0.337,-0.611 0.333,-0.599 0.33,-0.587C0.326,-0.576 0.323,-0.566 0.32,-0.557L0.207,-0.266Z" style="fill:rgb(15,119,178);fill-rule:nonzero;"/>
        </g>
        <g transform="matrix(120,0,0,120,633.68,124.126)">
            <path d="M0.194,-0.299L0.194,-0L0.097,-0L0.097,-0.717L0.3,-0.717C0.345,-0.717 0.384,-0.712 0.417,-0.703C0.45,-0.694 0.477,-0.68 0.499,-0.663C0.52,-0.646 0.536,-0.625 0.547,-0.6C0.557,-0.576 0.562,-0.548 0.562,-0.518C0.562,-0.493 0.558,-0.469 0.55,-0.447C0.542,-0.425 0.53,-0.405 0.515,-0.388C0.5,-0.37 0.482,-0.355 0.46,-0.343C0.438,-0.331 0.413,-0.321 0.386,-0.315C0.398,-0.308 0.408,-0.298 0.418,-0.285L0.627,-0L0.541,-0C0.523,-0 0.51,-0.007 0.502,-0.021L0.316,-0.277C0.31,-0.284 0.304,-0.29 0.297,-0.294C0.29,-0.297 0.28,-0.299 0.267,-0.299L0.194,-0.299ZM0.194,-0.37L0.295,-0.37C0.323,-0.37 0.348,-0.373 0.37,-0.38C0.391,-0.387 0.409,-0.396 0.424,-0.409C0.438,-0.421 0.449,-0.436 0.457,-0.454C0.464,-0.471 0.468,-0.49 0.468,-0.511C0.468,-0.554 0.453,-0.586 0.425,-0.608C0.397,-0.629 0.355,-0.64 0.3,-0.64L0.194,-0.64L0.194,-0.37Z" style="fill:rgb(15,119,178);fill-rule:nonzero;"/>
        </g>
        <g transform="matrix(120,0,0,120,716.6,124.126)">
            <path d="M0.677,-0L0.602,-0C0.593,-0 0.586,-0.002 0.581,-0.007C0.575,-0.011 0.571,-0.016 0.569,-0.023L0.502,-0.196L0.18,-0.196L0.113,-0.023C0.111,-0.017 0.107,-0.012 0.101,-0.007C0.095,-0.002 0.088,-0 0.08,-0L0.005,-0L0.292,-0.717L0.39,-0.717L0.677,-0ZM0.207,-0.266L0.475,-0.266L0.362,-0.558C0.355,-0.576 0.347,-0.598 0.341,-0.625C0.337,-0.611 0.333,-0.599 0.33,-0.587C0.326,-0.576 0.323,-0.566 0.32,-0.557L0.207,-0.266Z" style="fill:rgb(15,119,178);fill-rule:nonzero;"/>
        </g>
    </g>
</svg>
